# xmcd CD database file
# Copyright (C) 1993-1998 Ti Kan
# 
# Track frame offsets:
#     150
#     18515
#     36177
#     48787
#     64900
#     82030
#     95352
#     110635
#     128245
#     146662
#     166230
#     178860
#     195450
#     212397
#     229225
#     250607
#     265365
#     291880
# 
# Disc length: 4123 seconds
# 
# Revision: 1
# Processed by: cddbd v1.4b41PL1 Copyright (c) Steve Scherf et al.
# Submitted via: DiscPlay 4.0.4
# 
DISCID=02101912
DTITLE=Trisha Yearwood - (Songbook) A Collection of Hits
DYEAR=1900
DGENRE=
TTITLE0=How Do I Live
TTITLE1=The Song Remembers When
TTITLE2=The Wrong Side Of Memphis
TTITLE3=In Another's Eyes
TTITLE4=The Woman Before Me
TTITLE5=Perfect Love
TTITLE6=Thinkin' About You
TTITLE7=Down On My Knees
TTITLE8=She's In Love With The Boy
TTITLE9=Walkaway Joe
TTITLE10=XXX's And OOO's (An American Girl)
TTITLE11=Like We Never Had A Broken Heart
TTITLE12=A Lover Is Forever
TTITLE13=Believe Me Baby I Lied
TTITLE14=On A Bus To St. Cloud
TTITLE15=You Can Sleep While I Drive
TTITLE16=The Flame
TTITLE17=Save The Land
EXTD=
EXTT0=
EXTT1=
EXTT2=
EXTT3=Duet with Garth Brooks
EXTT4=
EXTT5=
EXTT6=
EXTT7=
EXTT8=
EXTT9=
EXTT10=
EXTT11=
EXTT12=
EXTT13=
EXTT14=
EXTT15=
EXTT16=
EXTT17=
PLAYORDER=
